<?xml version="1.0" encoding="utf-8"?>
<!-- Generator: Adobe Illustrator 23.0.3, SVG Export Plug-In . SVG Version: 6.00 Build 0)  -->
<svg version="1.2" baseProfile="tiny" id="Layer_1" xmlns="http://www.w3.org/2000/svg" xmlns:xlink="http://www.w3.org/1999/xlink"
	 x="0px" y="0px" viewBox="0 0 45 45" xml:space="preserve">
<g>
	<g>
		<path fill="#FFFFFF" d="M0,27c2.1,0,4.1,0,6.2,0c0.4,0,0.6,0.1,0.6,0.6c0,2.6,0,5.2,0,7.8c0,0.5,0.1,0.6,0.6,0.6
			c10.1,0,20.2,0,30.3,0c0.5,0,0.6-0.1,0.6-0.6c0-2.6,0-5.2,0-7.8c0-0.5,0.1-0.6,0.6-0.6c2,0,4.1,0,6.1,0c0,6,0,12,0,18
			c-15,0-30,0-45,0C0,39,0,33,0,27z"/>
		<path fill="#FFFFFF" d="M29.3,0c0,5.7,0,11.4,0,17.1c0,0.5,0.1,0.7,0.7,0.7c1.9,0,3.8,0,5.7,0c0.2,0,0.4,0,0.8,0
			c-0.2,0.3-0.3,0.4-0.4,0.5c-4.3,4.3-8.6,8.6-13,13c-0.3,0.3-0.5,0.4-0.9,0c-4.3-4.4-8.7-8.7-13-13.1c-0.1-0.1-0.2-0.2-0.4-0.4
			c0.3,0,0.5,0,0.7,0c1.9,0,3.9,0,5.8,0c0.5,0,0.6-0.1,0.6-0.6c0-5.7,0-11.4,0-17.2C20.3,0,24.8,0,29.3,0z"/>
	</g>
</g>
</svg>
